<?xml version="1.0" encoding="utf-8"?>
<!-- Generator: Adobe Illustrator 19.0.0, SVG Export Plug-In . SVG Version: 6.00 Build 0)  -->
<svg version="1.1" id="Layer_1" xmlns="http://www.w3.org/2000/svg" xmlns:xlink="http://www.w3.org/1999/xlink" x="0px" y="0px"
	 viewBox="-17 19 64 64" style="enable-background:new -17 19 64 64;" xml:space="preserve">
<style type="text/css">
	.st0{fill:#FFFFFF;}
</style>
<g>
	<path class="st0" d="M28,23.9c-0.1,0-0.2,0-0.4,0c0,0,0,0-0.1,0c-1.6,0-2.1-0.7-2.1-0.7s0,0,0,0c-2.5-2.5-6-4.1-9.9-4.1
		c-5.6,0-10.3,3.3-12.6,8c0,0,0,0,0,0.1c-0.5,0.9-1.2,1-1.6,0.9c-0.1,0-0.1,0-0.2,0l0,0v0C0.8,28,0.4,28-0.1,28
		c-5.3,0-9.7,4.4-9.7,9.8c0,4.6,3.2,8.5,7.4,9.5l0,0c0,0,0,0,0.1,0c0.1,0,0.1,0,0.2,0c0.4,0.1,1,0.4,1.4,1.4c0,0,0,0,0,0l6.8,18.7
		c0,0,0.6,1.8,2.5,1.8h12.6c1.7,0,2.4-1.1,2.7-1.7l0.1-0.4l0,0l0,0l6.9-18.8c0,0,0.4-1,1.6-1.6c0,0,0,0,0.1,0
		c4.2-1.8,7.2-6,7.2-10.9C39.8,29.2,34.5,23.9,28,23.9z M35.4,41.5c0,0-0.1,0.1-0.1,0.2c-0.3,0.3-0.5,0.7-0.8,1
		c-1,0.9-2.3,1.5-2.4,1.6c-0.4,0.2-0.8,0.3-1.3,0.5v0c0,0-1.2,0.2-1.8,1.5l-1.2,2.8l-5.4,14.7l-0.6,2c-0.1,0.3-0.5,1.2-1.8,1.2h-9.6
		c-1.2,0-1.6-0.9-1.7-1.2L3.2,50.9l-1.9-4.7c0,0,0,0,0,0c-0.4-1-1.8-1.5-1.8-1.5l0,0c-0.2-0.1-0.3-0.1-0.5-0.2l0,0
		c0,0-0.1,0-0.3-0.1c0,0-0.1,0-0.1-0.1c-1.3-0.7-5.6-3.5-4.3-9c0.8-2.8,4.1-4.6,8-4.1c0.2,0,0.4,0,0.6,0.1c0.1,0,0.1,0,0.2,0
		c0.1,0,0.2,0,0.3,0.1l0,0c0,0,1.3,0.3,1.8-0.8c0,0,0,0,0,0c1-2.3,3.6-7.2,9.2-8c3.7-0.4,7.6,2,9.4,3.6c0,0,0.9,0.9,2.4,0.8
		c0,0,0,0,0,0c2.5-0.2,7.8,0.4,10.7,7.8C37.2,35.8,37.4,38.7,35.4,41.5z"/>
	<g>
		<path class="st0" d="M13.6,79.1c-0.2-1.9-1.9-3.2-3.7-3C9.2,76.2,8.5,76.5,8,77c-0.4,0.2-0.8,0.6-1.1,1.1
			c-1.2,1.5-3.2,4.2-5.9,3.3c0,0,0,0,0,0c-0.8-0.2-0.2,0.3-0.1,0.5c1.6,1.2,3.5,1.7,5.6,0c0,0,0,0,0,0c0.6-0.4,1.1-0.2,1.3,0
			c0,0,0.1,0.1,0.1,0.1c0,0,0,0,0,0l0,0c0.7,0.7,1.7,1,2.7,0.9C12.5,82.7,13.8,81,13.6,79.1z"/>
		<path class="st0" d="M29,81.5L29,81.5c-2.5,0.6-4.4-2-5.5-3.4c-0.4-0.5-0.8-0.9-1.1-1.1c-0.5-0.5-1.2-0.8-1.9-0.9
			c-1.9-0.2-3.5,1.2-3.7,3c-0.2,1.9,1.2,3.5,3,3.7c1.1,0.1,2.1-0.3,2.7-1l0,0c0,0,0,0,0,0c0,0,0.1-0.1,0.1-0.1
			c0.2-0.2,0.6-0.4,1.5,0.1c0,0,0,0,0,0c1.9,1.5,3.5,1.1,5,0.2C30.1,81.3,29,81.5,29,81.5z"/>
	</g>
</g>
</svg>
